<svg width="14" height="14" viewBox="0 0 14 14" fill="none" xmlns="http://www.w3.org/2000/svg">
    <path d="M0.917291 11.2274C0.339743 8.58817 0.48957 6.24013 0.619062 5.35027C0.619898 5.34872 0.620829 5.34702 0.621864 5.34518C0.636671 5.31882 0.663829 5.27769 0.708517 5.22059C0.797942 5.10631 0.932507 4.9597 1.11084 4.78394C1.46598 4.43392 1.95842 4.00366 2.51874 3.5402C3.63717 2.6151 4.9925 1.58527 5.97993 0.850088C6.60443 0.385116 7.4518 0.383127 8.07804 0.84522C9.07368 1.5799 10.4411 2.61098 11.5625 3.53719C12.1244 4.00133 12.6153 4.43152 12.9649 4.78069C13.1406 4.95619 13.2703 5.10106 13.3538 5.21241C13.3917 5.2629 13.4143 5.2989 13.4266 5.32154C13.427 5.32741 13.4274 5.33334 13.4278 5.33933C13.4911 6.2901 13.6465 8.62459 13.1321 11.2378C12.9984 11.9166 12.7474 12.3506 12.3768 12.6483C11.9937 12.9561 11.424 13.166 10.5621 13.2737C10.1352 13.327 9.71231 13.3709 9.29243 13.4053C7.7443 13.5324 6.23455 13.5315 4.70863 13.403C4.30428 13.3689 3.89863 13.3259 3.49067 13.2739C2.63052 13.1641 2.06837 12.9522 1.68841 12.644C1.31885 12.3441 1.06613 11.9076 0.917291 11.2274ZM0.612787 5.36297C0.612768 5.36298 0.612975 5.36245 0.613466 5.36136L0.612787 5.36297ZM13.4356 5.34015C13.4356 5.34011 13.4351 5.33913 13.4345 5.33724C13.4353 5.33923 13.4357 5.34018 13.4356 5.34015Z" stroke="white" stroke-linecap="round" stroke-linejoin="round"/>
</svg>
