<svg width="101" height="25" viewBox="0 0 101 25" fill="none" xmlns="http://www.w3.org/2000/svg">
    <path d="M11.9718 23.0742C18.0884 23.0742 23.0469 18.1201 23.0469 12.0088C23.0469 5.89748 18.0884 0.943298 11.9718 0.943298C5.8552 0.943298 0.896729 5.89748 0.896729 12.0088C0.896729 18.1201 5.8552 23.0742 11.9718 23.0742Z" fill="white"/>
    <path d="M27.8359 12.4214H36.2046V9.69586H31.0221V0.194723H27.8359V12.4214ZM50.082 12.4214L44.9571 0.194723H41.6749L36.4253 12.4214H39.7075L40.5616 10.2621H45.8401L46.675 12.4214H50.082ZM43.2296 3.45774L44.8995 7.81483H41.5118L43.2296 3.45774ZM53.8153 7.38296V0.194723H50.629V7.38296C50.629 8.43864 50.8594 9.36956 51.32 10.1661C51.7711 10.9531 52.4525 11.5961 53.2682 11.9992C54.1128 12.431 55.0917 12.6422 56.2049 12.6422C57.3182 12.6422 58.2971 12.431 59.1225 11.9992C59.9286 11.5865 60.6004 10.9531 61.0419 10.1565C61.493 9.35997 61.7137 8.42905 61.7137 7.37336V0.194723H58.5178V7.38296C58.5178 8.16033 58.3067 8.78414 57.8844 9.2352C57.4622 9.69586 56.9055 9.9262 56.2241 9.9262C55.5235 9.9262 54.9477 9.69586 54.4967 9.22561C54.0456 8.76494 53.8153 8.15073 53.8153 7.38296ZM72.2705 7.55571L66.7042 0.194723H63.8922V12.4214H66.8769V5.10844L72.4241 12.4118H75.2168V0.194723H72.2513L72.2705 7.55571ZM86.4454 4.34068L88.2977 2.11415C87.6643 1.45194 86.8965 0.924104 86.0424 0.569011C84.1037 -0.265938 81.8868 -0.179564 80.0154 0.818535C78.0096 1.89341 76.7812 4.00478 76.8195 6.27929C76.8003 7.41175 77.0883 8.53461 77.6545 9.52312C78.2015 10.4732 78.9981 11.2698 79.9578 11.8072C81.8004 12.8437 84.027 12.9205 85.9464 12.028C86.8389 11.6345 87.6355 11.0683 88.3073 10.3677L86.4454 8.35227C86.0232 8.78414 85.5241 9.13923 84.9771 9.39835C84.4876 9.63828 83.9502 9.77264 83.4128 9.78224C82.8177 9.79183 82.2323 9.62868 81.7237 9.32158C81.215 9.01447 80.8119 8.573 80.5336 8.04516C80.2361 7.48853 80.0922 6.86472 80.1017 6.2409C80.0922 5.60749 80.2457 4.99328 80.5336 4.43665C80.8119 3.90881 81.215 3.47694 81.7237 3.16983C82.2323 2.86272 82.8177 2.69957 83.4032 2.70917C83.9694 2.71876 84.526 2.87232 85.0251 3.15063C85.5721 3.44814 86.0616 3.85122 86.4454 4.34068ZM89.6701 12.4214H92.8659V7.72846H97.7988V12.4214H100.995V0.194723H97.7988V5.18522H92.8659V0.194723H89.6701V12.4214ZM27.9894 16.2891H33.5558L27.8359 23.3046V23.9572H34.6786V23.2086H28.9203L34.6306 16.1739V15.5501H27.999V16.2891H27.9894ZM40.1106 15.4733C39.3332 15.4637 38.575 15.6653 37.9032 16.0492C37.2506 16.4138 36.694 16.9513 36.3101 17.5943C35.9166 18.2373 35.7151 18.9763 35.7151 19.7344C35.7055 20.4926 35.9166 21.2412 36.3005 21.8938C37.5578 23.9956 40.2833 24.677 42.3851 23.4101C43.0089 23.0358 43.5272 22.5176 43.9014 21.8938C44.2949 21.2412 44.4965 20.4926 44.4965 19.7344C44.5061 18.9763 44.2949 18.2373 43.9014 17.5943C43.5176 16.9513 42.9609 16.4138 42.3083 16.0492C41.6461 15.6653 40.8879 15.4637 40.1106 15.4733ZM40.1298 16.2219C40.7536 16.2219 41.3582 16.3755 41.8956 16.6922C42.4331 16.9993 42.8746 17.4407 43.1913 17.9686C43.508 18.506 43.6807 19.1202 43.6711 19.7344C43.6711 20.3583 43.508 20.9725 43.1913 21.5195C42.8841 22.0569 42.4331 22.4984 41.8956 22.8151C41.3582 23.1318 40.7536 23.295 40.1298 23.2854C39.506 23.2854 38.8917 23.1222 38.3447 22.8151C37.8073 22.508 37.3562 22.0569 37.0491 21.5195C36.7324 20.9821 36.5692 20.3679 36.5692 19.7344C36.5597 19.1106 36.7324 18.4964 37.0491 17.9686C37.6921 16.8841 38.863 16.2219 40.1298 16.2219ZM52.4429 22.6712L47.222 15.5501H46.3391V23.9668H47.1741V16.8361L52.3853 23.9668H53.2682V15.5501H52.4525V22.6712H52.4429ZM55.9266 23.9668H61.7137V23.2182H56.752V20.0511H61.0515V19.3026H56.752V16.2891H61.5601V15.5501H55.9266V23.9668Z" fill="url(#paint0_linear)"/>
    <path d="M23.0469 7.34451C20.4748 1.24074 13.4402 -1.62879 7.3364 0.943234C1.23264 3.51526 -1.6273 10.5499 0.944724 16.6537C3.51675 22.7575 10.5514 25.6174 16.6552 23.0454C22.7494 20.4734 25.6189 13.4483 23.0469 7.34451ZM11.9622 21.9897C6.45347 21.9897 1.98121 17.5174 1.98121 12.0087C1.98121 6.49996 6.45347 2.02771 11.9622 2.02771C17.471 2.02771 21.9432 6.49996 21.9432 12.0087C21.9432 17.5174 17.4805 21.9897 11.9622 21.9897Z" fill="url(#paint1_linear)"/>
    <path d="M14.1696 20.0992L20.0622 14.2065L14.1696 8.30432L12.0006 10.4733L15.7243 14.2065L12.0006 17.9302L14.1696 20.0992Z" fill="url(#paint2_linear)"/>
    <path d="M9.78366 3.92804L3.90063 9.82067L9.78366 15.7133L11.9526 13.5539L8.22893 9.82067L11.9526 6.09699L9.78366 3.92804Z" fill="url(#paint3_linear)"/>
    <path d="M71.46 16.644V19.572H75.672V20.604H71.46V24H70.26V15.6H76.188V16.644H71.46Z" fill="white"/>
    <path d="M79.8025 17.58C80.6825 17.58 81.3545 17.796 81.8185 18.228C82.2905 18.66 82.5265 19.304 82.5265 20.16V24H81.4345V23.16C81.2425 23.456 80.9665 23.684 80.6065 23.844C80.2545 23.996 79.8345 24.072 79.3465 24.072C78.6345 24.072 78.0625 23.9 77.6305 23.556C77.2065 23.212 76.9945 22.76 76.9945 22.2C76.9945 21.64 77.1985 21.192 77.6065 20.856C78.0145 20.512 78.6625 20.34 79.5505 20.34H81.3745V20.112C81.3745 19.616 81.2305 19.236 80.9425 18.972C80.6545 18.708 80.2305 18.576 79.6705 18.576C79.2945 18.576 78.9265 18.64 78.5665 18.768C78.2065 18.888 77.9025 19.052 77.6545 19.26L77.1745 18.396C77.5025 18.132 77.8945 17.932 78.3505 17.796C78.8065 17.652 79.2905 17.58 79.8025 17.58ZM79.5385 23.184C79.9785 23.184 80.3585 23.088 80.6785 22.896C80.9985 22.696 81.2305 22.416 81.3745 22.056V21.168H79.5985C78.6225 21.168 78.1345 21.496 78.1345 22.152C78.1345 22.472 78.2585 22.724 78.5065 22.908C78.7545 23.092 79.0985 23.184 79.5385 23.184Z" fill="white"/>
    <path d="M85.7624 18.708C85.9624 18.34 86.2584 18.06 86.6504 17.868C87.0424 17.676 87.5184 17.58 88.0784 17.58V18.696C88.0144 18.688 87.9264 18.684 87.8144 18.684C87.1904 18.684 86.6984 18.872 86.3384 19.248C85.9864 19.616 85.8104 20.144 85.8104 20.832V24H84.6584V17.64H85.7624V18.708Z" fill="white"/>
    <path d="M97.4543 17.58C98.2543 17.58 98.8863 17.812 99.3503 18.276C99.8223 18.74 100.058 19.428 100.058 20.34V24H98.9063V20.472C98.9063 19.856 98.7623 19.392 98.4743 19.08C98.1943 18.768 97.7903 18.612 97.2623 18.612C96.6783 18.612 96.2143 18.796 95.8703 19.164C95.5263 19.524 95.3543 20.044 95.3543 20.724V24H94.2023V20.472C94.2023 19.856 94.0583 19.392 93.7703 19.08C93.4903 18.768 93.0863 18.612 92.5583 18.612C91.9743 18.612 91.5103 18.796 91.1663 19.164C90.8223 19.524 90.6503 20.044 90.6503 20.724V24H89.4983V17.64H90.6023V18.588C90.8343 18.26 91.1383 18.012 91.5143 17.844C91.8903 17.668 92.3183 17.58 92.7983 17.58C93.2943 17.58 93.7343 17.68 94.1183 17.88C94.5023 18.08 94.7983 18.372 95.0063 18.756C95.2463 18.388 95.5783 18.1 96.0023 17.892C96.4343 17.684 96.9183 17.58 97.4543 17.58Z" fill="white"/>
    <defs>
        <linearGradient id="paint0_linear" x1="37.0965" y1="-10.8416" x2="86.0429" y2="30.2294" gradientUnits="userSpaceOnUse">
            <stop stop-color="#328B31"/>
            <stop offset="1" stop-color="#96CF24"/>
        </linearGradient>
        <linearGradient id="paint1_linear" x1="3.9267" y1="21.1727" x2="19.8907" y2="3.01323" gradientUnits="userSpaceOnUse">
            <stop stop-color="#328B31"/>
            <stop offset="1" stop-color="#96CF24"/>
        </linearGradient>
        <linearGradient id="paint2_linear" x1="6.37724" y1="23.324" x2="22.3383" y2="5.1645" gradientUnits="userSpaceOnUse">
            <stop stop-color="#328B31"/>
            <stop offset="1" stop-color="#96CF24"/>
        </linearGradient>
        <linearGradient id="paint3_linear" x1="1.47917" y1="19.0187" x2="17.4432" y2="0.859258" gradientUnits="userSpaceOnUse">
            <stop stop-color="#328B31"/>
            <stop offset="1" stop-color="#96CF24"/>
        </linearGradient>
    </defs>
</svg>
