<svg width="14" height="11" viewBox="0 0 14 11" fill="none" xmlns="http://www.w3.org/2000/svg">
    <path d="M12.7273 3.27289C11.8045 3.27289 11.2891 4.18925 11.4991 4.87017L9.24 7.13562C9.04909 7.07835 8.76909 7.07835 8.57818 7.13562L6.95545 5.51289C7.17182 4.83198 6.65636 3.90925 5.72727 3.90925C4.80455 3.90925 4.28273 4.82562 4.49909 5.51289L1.59727 8.40836C0.916364 8.19835 0 8.71381 0 9.63654C0 10.3365 0.572727 10.9093 1.27273 10.9093C2.19545 10.9093 2.71091 9.99291 2.50091 9.31199L5.39636 6.41017C5.58727 6.46744 5.86727 6.46744 6.05818 6.41017L7.68091 8.0329C7.46455 8.71381 7.98 9.63654 8.90909 9.63654C9.83182 9.63654 10.3536 8.72017 10.1373 8.0329L12.4027 5.7738C13.0836 5.9838 14 5.46835 14 4.54562C14 3.84562 13.4273 3.27289 12.7273 3.27289Z" fill="white"/>
    <path d="M8.90909 3.90895L9.50727 2.59167L10.8182 1.99986L9.50727 1.40804L8.90909 0.0907593L8.32363 1.40804L7 1.99986L8.32363 2.59167L8.90909 3.90895Z" fill="white"/>
    <path d="M1.59089 5.18212L1.90906 3.90938L3.18177 3.5912L1.90906 3.27301L1.59089 2.00027L1.27271 3.27301L0 3.5912L1.27271 3.90938L1.59089 5.18212Z" fill="white"/>
</svg>
