<svg width="20" height="20" viewBox="0 0 20 20" fill="none" xmlns="http://www.w3.org/2000/svg">
<path d="M19.9667 9.98292C19.9667 4.46951 15.497 1.52588e-05 9.98335 1.52588e-05C4.4697 1.52588e-05 0 4.46951 0 9.98292C0 15.4963 4.4697 19.9658 9.98335 19.9658C15.497 19.9658 19.9667 15.4963 19.9667 9.98292Z" fill="url(#paint0_linear)"/>
<path style="mix-blend-mode:multiply" opacity="0.69" d="M0.35437 7.41875L10.7135 19.951C12.8451 19.8032 14.8732 18.9696 16.4983 17.5731C18.1235 16.1766 19.2596 14.2912 19.7392 12.1951L8.69779 0.1026C6.74479 0.356297 4.91015 1.18652 3.4253 2.48856C1.94044 3.79059 0.87187 5.50612 0.35437 7.41875Z" fill="url(#paint1_linear)"/>
<path style="mix-blend-mode:soft-light" d="M18.5279 4.80475C17.6337 3.34097 16.3819 2.13217 14.8919 1.29364C13.4019 0.455112 11.7233 0.0148058 10.0163 0.0147095C9.79926 0.0147095 9.5863 0.0229023 9.37334 0.0365569C7.68594 2.42202 8.23258 5.98588 11.016 7.60395C13.9513 9.30942 17.5147 7.76508 18.5279 4.80475Z" fill="url(#paint2_linear)"/>
<path style="mix-blend-mode:multiply" opacity="0.69" d="M5.11646 1.29146C5.16678 1.8528 5.3512 2.39356 5.654 2.86765C5.95679 3.34174 6.36897 3.7351 6.8554 4.01419C7.38981 4.32478 7.99601 4.48832 8.61309 4.48836C9.23017 4.48841 9.8364 4.32496 10.3708 4.01444C10.9053 3.70392 11.3492 3.25728 11.6578 2.71938C11.9665 2.18148 12.129 1.57128 12.1292 0.950091C12.1291 0.707511 12.105 0.465545 12.0573 0.227761C11.3858 0.0872835 10.7018 0.0159123 10.0159 0.0147485C8.30096 0.00993748 6.61367 0.449615 5.11646 1.29146Z" fill="url(#paint3_linear)"/>
<path d="M10.7062 2.81446C10.8957 2.81446 11.0494 2.65979 11.0494 2.469C11.0494 2.2782 10.8957 2.12354 10.7062 2.12354C10.5167 2.12354 10.363 2.2782 10.363 2.469C10.363 2.65979 10.5167 2.81446 10.7062 2.81446Z" fill="#535353"/>
<path d="M10.7062 1.58802C10.8957 1.58802 11.0494 1.43335 11.0494 1.24256C11.0494 1.05176 10.8957 0.897095 10.7062 0.897095C10.5167 0.897095 10.363 1.05176 10.363 1.24256C10.363 1.43335 10.5167 1.58802 10.7062 1.58802Z" fill="#535353"/>
<path d="M13.5756 2.81446C13.7651 2.81446 13.9188 2.65979 13.9188 2.469C13.9188 2.2782 13.7651 2.12354 13.5756 2.12354C13.3861 2.12354 13.2324 2.2782 13.2324 2.469C13.2324 2.65979 13.3861 2.81446 13.5756 2.81446Z" fill="#535353"/>
<path d="M13.5756 1.58802C13.7651 1.58802 13.9188 1.43335 13.9188 1.24256C13.9188 1.05176 13.7651 0.897095 13.5756 0.897095C13.3861 0.897095 13.2324 1.05176 13.2324 1.24256C13.2324 1.43335 13.3861 1.58802 13.5756 1.58802Z" fill="#535353"/>
<path d="M10.3615 0.0526389C10.3615 0.144623 10.3977 0.23284 10.4624 0.297883C10.527 0.362926 10.6146 0.399467 10.706 0.399467C10.794 0.399216 10.8786 0.364921 10.9422 0.303673C11.0058 0.242424 11.0436 0.158907 11.0478 0.0703899C10.8226 0.047177 10.5961 0.0335224 10.3642 0.0253296C10.3642 0.0348878 10.3615 0.0430806 10.3615 0.0526389Z" fill="#535353"/>
<path d="M12.1728 1.58802C12.3623 1.58802 12.5159 1.43335 12.5159 1.24256C12.5159 1.05176 12.3623 0.897095 12.1728 0.897095C11.9832 0.897095 11.8296 1.05176 11.8296 1.24256C11.8296 1.43335 11.9832 1.58802 12.1728 1.58802Z" fill="#535353"/>
<path d="M12.1728 2.81446C12.3623 2.81446 12.5159 2.65979 12.5159 2.469C12.5159 2.2782 12.3623 2.12354 12.1728 2.12354C11.9832 2.12354 11.8296 2.2782 11.8296 2.469C11.8296 2.65979 11.9832 2.81446 12.1728 2.81446Z" fill="#535353"/>
<path d="M7.92804 2.81627C7.99641 2.81654 8.06332 2.79632 8.12024 2.75819C8.17716 2.72006 8.22153 2.66575 8.24769 2.60216C8.27385 2.53857 8.28063 2.46858 8.26715 2.4011C8.25368 2.33362 8.22057 2.27171 8.17203 2.22323C8.12349 2.17476 8.06172 2.14192 7.99458 2.12889C7.92745 2.11586 7.85798 2.12324 7.79502 2.15008C7.73206 2.17692 7.67846 2.22201 7.64103 2.27961C7.60361 2.33721 7.58406 2.40472 7.58486 2.47354C7.58593 2.56458 7.62251 2.65154 7.68672 2.71566C7.75092 2.77978 7.8376 2.81592 7.92804 2.81627Z" fill="#535353"/>
<path d="M7.92829 0.398992C7.99868 0.398927 8.06733 0.376989 8.12487 0.336176C8.18241 0.295362 8.22603 0.237663 8.24977 0.170959C8.05851 0.205096 7.86726 0.244694 7.67871 0.289755C7.71071 0.324133 7.74936 0.351558 7.79229 0.370344C7.83521 0.389129 7.88149 0.398878 7.92829 0.398992Z" fill="#535353"/>
<path d="M12.172 0.398918C12.2568 0.398184 12.3384 0.366112 12.4012 0.308798C12.2222 0.263737 12.0404 0.225504 11.8586 0.190002C11.8852 0.251626 11.9289 0.304171 11.9845 0.341257C12.0401 0.378342 12.1053 0.398374 12.172 0.398918Z" fill="#535353"/>
<path d="M7.92803 0.897097C7.85989 0.897097 7.79328 0.917439 7.73662 0.955548C7.67996 0.993658 7.6358 1.04783 7.60972 1.1112C7.58365 1.17457 7.57682 1.24431 7.59012 1.31159C7.60341 1.37887 7.63622 1.44066 7.68441 1.48917C7.73259 1.53767 7.79398 1.57071 7.86081 1.58409C7.92765 1.59747 7.99692 1.5906 8.05988 1.56435C8.12283 1.5381 8.17664 1.49365 8.2145 1.43661C8.25236 1.37958 8.27256 1.31252 8.27256 1.24393C8.27274 1.19833 8.26395 1.15315 8.2467 1.11099C8.22945 1.06883 8.20408 1.03052 8.17205 0.998278C8.14002 0.966036 8.10197 0.940496 8.06009 0.92313C8.01821 0.905765 7.97333 0.896917 7.92803 0.897097Z" fill="#535353"/>
<path d="M9.30387 2.81446C9.4934 2.81446 9.64705 2.65979 9.64705 2.469C9.64705 2.2782 9.4934 2.12354 9.30387 2.12354C9.11434 2.12354 8.96069 2.2782 8.96069 2.469C8.96069 2.65979 9.11434 2.81446 9.30387 2.81446Z" fill="#535353"/>
<path d="M9.30387 1.58802C9.4934 1.58802 9.64705 1.43335 9.64705 1.24256C9.64705 1.05176 9.4934 0.897095 9.30387 0.897095C9.11434 0.897095 8.96069 1.05176 8.96069 1.24256C8.96069 1.43335 9.11434 1.58802 9.30387 1.58802Z" fill="#535353"/>
<path d="M9.30318 0.399062C9.39432 0.398701 9.48161 0.362001 9.54592 0.296997C9.61024 0.231993 9.64636 0.143983 9.64636 0.0522343C9.64703 0.042688 9.64703 0.0331059 9.64636 0.0235596C9.41712 0.0317523 9.18924 0.0467724 8.96814 0.0699853C8.97192 0.157449 9.00868 0.240174 9.07092 0.301313C9.13317 0.362452 9.21623 0.397408 9.30318 0.399062Z" fill="#535353"/>
<path opacity="0.57" d="M7.43076 16.3899C6.95858 16.661 6.56361 17.0499 6.28378 17.519C6.00396 17.9882 5.84868 18.5219 5.83289 19.0689C7.82306 19.9851 10.0565 20.2201 12.1918 19.738C12.223 19.5549 12.2389 19.3694 12.2393 19.1836C12.2393 18.6172 12.0911 18.0607 11.8097 17.5702C11.5283 17.0797 11.1236 16.6724 10.6363 16.3893C10.1489 16.1061 9.59613 15.9571 9.03344 15.9572C8.47075 15.9573 7.918 16.1066 7.43076 16.3899Z" fill="url(#paint4_linear)"/>
<path style="mix-blend-mode:soft-light" d="M4.86298 15.9913C4.54139 16.1749 4.27245 16.4392 4.08231 16.7583C3.89216 17.0775 3.78727 17.4408 3.77783 17.8128C4.81202 18.6371 5.99824 19.247 7.26794 19.6071C7.53155 19.4044 7.74483 19.1429 7.891 18.8432C8.03717 18.5434 8.11223 18.2136 8.11028 17.8797C8.10884 17.4977 8.00793 17.1228 7.81761 16.7923C7.62729 16.4618 7.35422 16.1874 7.02563 15.9963C6.69705 15.8052 6.32444 15.7042 5.94497 15.7033C5.56549 15.7024 5.19243 15.8017 4.86298 15.9913Z" fill="url(#paint5_linear)"/>
<defs>
<linearGradient id="paint0_linear" x1="19.9667" y1="2.10168" x2="19.9667" y2="19.9658" gradientUnits="userSpaceOnUse">
<stop stop-color="#96CF24"/>
<stop offset="1" stop-color="#5AA62B"/>
</linearGradient>
<linearGradient id="paint1_linear" x1="0.35437" y1="10.0282" x2="19.7392" y2="10.0282" gradientUnits="userSpaceOnUse">
<stop offset="0.04" stop-color="#943227"/>
<stop offset="0.14" stop-color="#A23E2F"/>
<stop offset="0.49" stop-color="#D06447"/>
<stop offset="0.76" stop-color="#EC7B56"/>
<stop offset="0.91" stop-color="#F7845C"/>
</linearGradient>
<linearGradient id="paint2_linear" x1="634.65" y1="252.19" x2="1388.17" y2="252.19" gradientUnits="userSpaceOnUse">
<stop offset="0.04" stop-color="#943227"/>
<stop offset="0.14" stop-color="#A23E2F"/>
<stop offset="0.49" stop-color="#D06447"/>
<stop offset="0.76" stop-color="#EC7B56"/>
<stop offset="0.91" stop-color="#F7845C"/>
</linearGradient>
<linearGradient id="paint3_linear" x1="268.796" y1="73.3826" x2="631.356" y2="73.3826" gradientUnits="userSpaceOnUse">
<stop offset="0.04" stop-color="#943227"/>
<stop offset="0.14" stop-color="#A23E2F"/>
<stop offset="0.49" stop-color="#D06447"/>
<stop offset="0.76" stop-color="#EC7B56"/>
<stop offset="0.91" stop-color="#F7845C"/>
</linearGradient>
<linearGradient id="paint4_linear" x1="280.477" y1="545.157" x2="583.053" y2="545.157" gradientUnits="userSpaceOnUse">
<stop offset="0.04" stop-color="#943227"/>
<stop offset="0.14" stop-color="#A23E2F"/>
<stop offset="0.49" stop-color="#D06447"/>
<stop offset="0.76" stop-color="#EC7B56"/>
<stop offset="0.91" stop-color="#F7845C"/>
</linearGradient>
<linearGradient id="paint5_linear" x1="124.134" y1="519.755" x2="262.514" y2="519.755" gradientUnits="userSpaceOnUse">
<stop offset="0.04" stop-color="#943227"/>
<stop offset="0.14" stop-color="#A23E2F"/>
<stop offset="0.49" stop-color="#D06447"/>
<stop offset="0.76" stop-color="#EC7B56"/>
<stop offset="0.91" stop-color="#F7845C"/>
</linearGradient>
</defs>
</svg>
